# xmcd CD database file
#
# Track frame offsets:
#	150
#	13275
#	29738
#	44473
#	60775
#	75820
#	90370
#	102300
#	118063
#	136198
#	151395
#	173345
#	191663
#	201870
#	216043
#	230675
#
# Disc length: 3265 seconds
#
# Revision: 0
# Processed by: cddbd v1.5.1PL0 Copyright (c) Steve Scherf et al.
# Submitted via: CDex 1.51
#
DISCID=c90cbf10
DTITLE=Various Artist - 女の子向けベストヒット
DYEAR=1994
DGENRE=Other
TTITLE0=ムーンライト伝説
TTITLE1=愛の戦士
TTITLE2=乙女のポリシー
TTITLE3=タキシード・ミラージュ
TTITLE4=キャンディ・キャンディ
TTITLE5=あしたがすき
TTITLE6=ワイワイワールド
TTITLE7=めちゃんこROCK'N ROLL
TTITLE8=コスモスアドベンチャー
TTITLE9=Twinkle Twinkle Wink~お願いShooting Star~
TTITLE10=APOLLO
TTITLE11=鳥になる
TTITLE12=わぴこ元気予報！
TTITLE13=スーパーきんぎょ
TTITLE14=わぴこメイト行進曲
TTITLE15=ぎょっぴーダンス
EXTD=YEAR: 1994
EXTT0=
EXTT1=
EXTT2=
EXTT3=
EXTT4=
EXTT5=
EXTT6=
EXTT7=
EXTT8=
EXTT9=
EXTT10=
EXTT11=
EXTT12=
EXTT13=
EXTT14=
EXTT15=
PLAYORDER=
